<svg width="24" height="24" viewBox="0 0 24 24" fill="none" xmlns="http://www.w3.org/2000/svg">
<path fill-rule="evenodd" clip-rule="evenodd" d="M12 2C6.47715 2 2 6.47715 2 12C2 17.5228 6.47715 22 12 22C17.5228 22 22 17.5228 22 12C22 6.47715 17.5228 2 12 2ZM8.17146 6.75725C7.78094 6.36672 7.14777 6.36672 6.75725 6.75725C6.36672 7.14777 6.36672 7.78094 6.75725 8.17146L10.5857 11.9999L6.75725 15.8283C6.36672 16.2188 6.36672 16.852 6.75725 17.2425C7.14777 17.6331 7.78094 17.6331 8.17146 17.2425L11.9999 13.4141L15.8283 17.2425C16.2188 17.6331 16.852 17.6331 17.2425 17.2425C17.6331 16.852 17.6331 16.2188 17.2425 15.8283L13.4141 11.9999L17.2425 8.17146C17.6331 7.78094 17.6331 7.14777 17.2425 6.75725C16.852 6.36672 16.2188 6.36672 15.8283 6.75725L11.9999 10.5857L8.17146 6.75725Z" fill="black"/>
</svg>
