<svg width="64" height="64" viewBox="0 0 64 64" fill="none" xmlns="http://www.w3.org/2000/svg">
<g clip-path="url(#clip0_1923_31772)">
<path fill-rule="evenodd" clip-rule="evenodd" d="M0 32C0 14.3355 14.3355 0 32 0C49.6645 0 64 14.3355 64 32C64 49.6645 49.6645 64 32 64C14.3355 64 0 49.6645 0 32ZM50.7999 28.2834C51.3806 28.6189 51.7935 28.7866 52.4644 28.7866C54.0386 28.7866 55.458 27.535 55.458 25.7802C55.458 24.2447 54.7999 23.4447 53.7935 22.864C46.5806 18.6576 36.7096 16.6963 27.2902 16.6963C21.7548 16.6963 16.6709 17.3285 12.129 18.6576C10.9677 18.9931 9.88379 19.9866 9.88379 21.7415C9.88379 23.4576 11.187 24.7866 12.8902 24.7866C13.4068 24.7866 13.8964 24.643 14.3141 24.5205C14.3973 24.4961 14.4776 24.4726 14.5548 24.4511C25.187 21.4834 41.6128 22.7995 50.7999 28.2834ZM47.0493 38.1695C47.4568 38.3909 47.8763 38.6189 48.4644 38.6189C49.8709 38.6189 50.9548 37.4963 50.9677 36.1027C50.9677 34.9802 50.5548 34.1802 49.5096 33.5608C43.1354 29.7673 35.0451 27.6898 26.6709 27.6898C21.3031 27.6898 17.6386 28.4382 14.0515 29.4447C12.7225 29.8189 12.0515 30.735 12.0515 32.1156C12.0515 33.4963 13.1741 34.6189 14.5548 34.6189C14.9818 34.6189 15.2763 34.5281 15.6486 34.4134C15.7825 34.3721 15.9264 34.3278 16.0902 34.2834C26.787 31.3802 38.8128 33.3027 46.8773 38.0769C46.9347 38.1072 46.9919 38.1383 47.0493 38.1695ZM43.6128 46.6189C44.116 46.9156 44.4515 47.0834 44.9935 47.0834C46.0386 47.0834 46.9548 46.2705 46.9548 45.0963C46.9548 43.9221 46.4902 43.4705 45.7031 42.9673C36.4902 37.4576 25.6902 37.2511 15.1225 39.5866C14.1548 39.7931 13.3677 40.4253 13.3677 41.7544C13.3677 42.7995 14.1548 43.7931 15.4064 43.7931C15.7002 43.7931 16.1691 43.6658 16.6006 43.5486C16.7186 43.5166 16.8338 43.4853 16.9419 43.4576C26.1935 41.5608 35.5612 41.7673 43.6128 46.6189Z" fill="#1ED760"/>
</g>
<defs>
<clipPath id="clip0_1923_31772">
<rect width="64" height="64" fill="white"/>
</clipPath>
</defs>
</svg>
